<svg xmlns="http://www.w3.org/2000/svg" xmlns:xlink="http://www.w3.org/1999/xlink" width="500" zoomAndPan="magnify" viewBox="0 0 375 374.999991" height="500" preserveAspectRatio="xMidYMid meet" version="1.0"><defs><g/><clipPath id="221597b55d"><path d="M 109.875 94.902344 L 179.625 94.902344 L 179.625 249.402344 L 109.875 249.402344 Z M 109.875 94.902344 " clip-rule="nonzero"/></clipPath><clipPath id="21267de045"><path d="M 184.652344 78.214844 L 190.652344 78.214844 L 190.652344 265.714844 L 184.652344 265.714844 Z M 184.652344 78.214844 " clip-rule="nonzero"/></clipPath><clipPath id="a910adf713"><path d="M 195.480469 94.527344 L 265.230469 94.527344 L 265.230469 249.027344 L 195.480469 249.027344 Z M 195.480469 94.527344 " clip-rule="nonzero"/></clipPath></defs><rect x="-37.5" width="450" fill="#ffffff" y="-37.499999" height="449.999989" fill-opacity="1"/><rect x="-37.5" width="450" fill="#000000" y="-37.499999" height="449.999989" fill-opacity="1"/><g fill="#ffffff" fill-opacity="1"><g transform="translate(159.38612, 290.999513)"><g><path d="M 9.140625 0.34375 C 8.234375 0.34375 7.316406 0.226562 6.390625 0 C 5.460938 -0.21875 4.601562 -0.570312 3.8125 -1.0625 C 3.03125 -1.550781 2.367188 -2.207031 1.828125 -3.03125 C 1.296875 -3.863281 0.972656 -4.890625 0.859375 -6.109375 L 4.53125 -6.109375 C 4.75 -5.222656 5.09375 -4.53125 5.5625 -4.03125 C 6.039062 -3.53125 6.597656 -3.179688 7.234375 -2.984375 C 7.867188 -2.785156 8.515625 -2.6875 9.171875 -2.6875 C 10.140625 -2.6875 10.953125 -2.890625 11.609375 -3.296875 C 12.265625 -3.710938 12.59375 -4.367188 12.59375 -5.265625 C 12.59375 -5.929688 12.378906 -6.441406 11.953125 -6.796875 C 11.523438 -7.160156 10.96875 -7.441406 10.28125 -7.640625 C 9.601562 -7.847656 8.863281 -8.035156 8.0625 -8.203125 C 7.289062 -8.378906 6.515625 -8.570312 5.734375 -8.78125 C 4.960938 -9 4.253906 -9.296875 3.609375 -9.671875 C 2.960938 -10.054688 2.445312 -10.5625 2.0625 -11.1875 C 1.675781 -11.820312 1.484375 -12.632812 1.484375 -13.625 C 1.484375 -14.84375 1.773438 -15.859375 2.359375 -16.671875 C 2.941406 -17.484375 3.734375 -18.097656 4.734375 -18.515625 C 5.734375 -18.929688 6.863281 -19.140625 8.125 -19.140625 C 9.34375 -19.140625 10.484375 -18.925781 11.546875 -18.5 C 12.617188 -18.070312 13.523438 -17.421875 14.265625 -16.546875 C 15.003906 -15.679688 15.472656 -14.566406 15.671875 -13.203125 L 12.046875 -13.203125 C 11.816406 -14.203125 11.335938 -14.9375 10.609375 -15.40625 C 9.878906 -15.875 9.03125 -16.109375 8.0625 -16.109375 C 7.175781 -16.109375 6.441406 -15.921875 5.859375 -15.546875 C 5.285156 -15.179688 5 -14.640625 5 -13.921875 C 5 -13.347656 5.195312 -12.894531 5.59375 -12.5625 C 6 -12.238281 6.53125 -11.976562 7.1875 -11.78125 C 7.851562 -11.59375 8.5625 -11.410156 9.3125 -11.234375 C 10.101562 -11.066406 10.894531 -10.863281 11.6875 -10.625 C 12.488281 -10.394531 13.226562 -10.078125 13.90625 -9.671875 C 14.59375 -9.265625 15.140625 -8.722656 15.546875 -8.046875 C 15.960938 -7.378906 16.171875 -6.515625 16.171875 -5.453125 C 16.171875 -3.671875 15.550781 -2.257812 14.3125 -1.21875 C 13.082031 -0.175781 11.359375 0.34375 9.140625 0.34375 Z M 9.140625 0.34375 "/></g></g></g><g fill="#ffffff" fill-opacity="1"><g transform="translate(176.530593, 290.999513)"><g><path d="M 8.765625 -14.09375 C 9.984375 -14.09375 11.046875 -13.785156 11.953125 -13.171875 C 12.867188 -12.566406 13.582031 -11.722656 14.09375 -10.640625 C 14.601562 -9.554688 14.859375 -8.3125 14.859375 -6.90625 C 14.859375 -5.488281 14.601562 -4.238281 14.09375 -3.15625 C 13.582031 -2.070312 12.867188 -1.222656 11.953125 -0.609375 C 11.046875 -0.00390625 9.984375 0.296875 8.765625 0.296875 C 7.960938 0.296875 7.25 0.15625 6.625 -0.125 C 6 -0.414062 5.410156 -0.957031 4.859375 -1.75 L 4.859375 4.984375 L 1.53125 4.984375 L 1.53125 -13.828125 L 4.859375 -13.828125 L 4.859375 -12.078125 C 5.410156 -12.847656 6 -13.375 6.625 -13.65625 C 7.25 -13.945312 7.960938 -14.09375 8.765625 -14.09375 Z M 8.015625 -11.234375 C 6.960938 -11.234375 6.101562 -10.832031 5.4375 -10.03125 C 4.769531 -9.226562 4.4375 -8.1875 4.4375 -6.90625 C 4.4375 -5.625 4.769531 -4.578125 5.4375 -3.765625 C 6.101562 -2.960938 6.960938 -2.5625 8.015625 -2.5625 C 9.078125 -2.5625 9.921875 -2.972656 10.546875 -3.796875 C 11.179688 -4.617188 11.5 -5.65625 11.5 -6.90625 C 11.5 -8.164062 11.179688 -9.203125 10.546875 -10.015625 C 9.921875 -10.828125 9.078125 -11.234375 8.015625 -11.234375 Z M 8.015625 -11.234375 "/></g></g></g><g fill="#ffffff" fill-opacity="1"><g transform="translate(192.369524, 290.999513)"><g><path d="M 6.796875 0 L 4.65625 0 C 3.632812 0 2.84375 -0.234375 2.28125 -0.703125 C 1.726562 -1.179688 1.453125 -1.957031 1.453125 -3.03125 L 1.453125 -18.796875 L 4.78125 -18.796875 L 4.78125 -4.015625 C 4.78125 -3.554688 4.863281 -3.234375 5.03125 -3.046875 C 5.207031 -2.859375 5.5 -2.765625 5.90625 -2.765625 L 6.796875 -2.765625 Z M 6.796875 0 "/></g></g></g><g fill="#ffffff" fill-opacity="1"><g transform="translate(199.808652, 290.999513)"><g><path d="M 3.171875 -15.34375 C 2.617188 -15.34375 2.140625 -15.515625 1.734375 -15.859375 C 1.335938 -16.210938 1.140625 -16.675781 1.140625 -17.25 C 1.140625 -17.8125 1.335938 -18.265625 1.734375 -18.609375 C 2.140625 -18.960938 2.617188 -19.140625 3.171875 -19.140625 C 3.734375 -19.140625 4.210938 -18.960938 4.609375 -18.609375 C 5.015625 -18.265625 5.21875 -17.8125 5.21875 -17.25 C 5.21875 -16.675781 5.015625 -16.210938 4.609375 -15.859375 C 4.210938 -15.515625 3.734375 -15.34375 3.171875 -15.34375 Z M 4.828125 0 L 1.5 0 L 1.5 -13.828125 L 4.828125 -13.828125 Z M 4.828125 0 "/></g></g></g><g fill="#ffffff" fill-opacity="1"><g transform="translate(206.163934, 290.999513)"><g><path d="M 8.578125 0 L 5.84375 0 C 4.820312 0 4.023438 -0.234375 3.453125 -0.703125 C 2.890625 -1.179688 2.609375 -1.957031 2.609375 -3.03125 L 2.609375 -11.15625 L 0.5625 -11.15625 L 0.5625 -13.828125 L 2.609375 -13.828125 L 2.609375 -18.796875 L 5.9375 -18.796875 L 5.9375 -13.828125 L 8.59375 -13.828125 L 8.59375 -11.15625 L 5.9375 -11.15625 L 5.9375 -4.046875 C 5.9375 -3.679688 6 -3.375 6.125 -3.125 C 6.25 -2.882812 6.566406 -2.765625 7.078125 -2.765625 L 8.578125 -2.765625 Z M 8.578125 0 "/></g></g></g><g clip-path="url(#221597b55d)"><path fill="#ffffff" d="M 185.136719 161.601562 L 168.382812 157.90625 C 150.316406 153.917969 143.375 147.90625 143.375 138.464844 C 143.375 126.5 152.589844 118.367188 170.175781 118.367188 C 184.832031 118.367188 194.417969 125.171875 197.839844 134.972656 C 198.089844 135.691406 198.320312 136.425781 198.488281 137.1875 C 198.644531 137.890625 198.765625 138.527344 198.867188 139.089844 C 199.152344 140.679688 200.542969 141.816406 202.15625 141.816406 L 223.773438 141.816406 C 224.703125 141.816406 225.59375 141.429688 226.222656 140.746094 C 226.855469 140.066406 227.179688 139.152344 227.113281 138.226562 C 225.257812 112.324219 202.671875 94.917969 170.910156 94.917969 C 136.40625 94.917969 113.226562 113.3125 113.226562 140.6875 C 113.226562 161.601562 129.121094 174.253906 155.566406 179.992188 L 174.4375 184.175781 C 193.113281 188.359375 200.324219 194.292969 200.324219 204.410156 C 200.324219 216.183594 188.671875 225.5625 171.511719 225.5625 C 155.753906 225.5625 144.0625 218.953125 139.964844 209.273438 C 139.28125 207.546875 138.804688 205.9375 138.492188 204.683594 C 138.109375 203.179688 136.78125 202.113281 135.230469 202.113281 L 113.226562 202.113281 C 112.292969 202.113281 111.394531 202.507812 110.761719 203.195312 C 110.128906 203.886719 109.8125 204.808594 109.890625 205.742188 C 112.09375 232.027344 135.648438 249.011719 169.898438 249.011719 C 207.261719 249.011719 230.472656 231.042969 230.472656 202.113281 C 230.472656 180.707031 214.710938 168.023438 185.136719 161.601562 Z M 185.136719 161.601562 " fill-opacity="1" fill-rule="nonzero"/></g><g clip-path="url(#21267de045)"><path fill="#ffffff" d="M 184.652344 78.214844 L 190.652344 78.214844 L 190.652344 265.714844 L 184.652344 265.714844 Z M 184.652344 78.214844 " fill-opacity="1" fill-rule="nonzero"/></g><g clip-path="url(#a910adf713)"><path fill="#1ed760" d="M 189.96875 182.324219 L 206.722656 186.023438 C 224.789062 190.011719 231.730469 196.023438 231.730469 205.464844 C 231.730469 217.429688 222.515625 225.5625 204.929688 225.5625 C 190.273438 225.5625 180.6875 218.757812 177.265625 208.953125 C 177.015625 208.238281 176.785156 207.503906 176.617188 206.742188 C 176.460938 206.039062 176.339844 205.402344 176.238281 204.839844 C 175.953125 203.25 174.5625 202.113281 172.949219 202.113281 L 151.332031 202.113281 C 150.402344 202.113281 149.511719 202.5 148.882812 203.183594 C 148.25 203.863281 147.925781 204.777344 147.992188 205.703125 C 149.847656 231.605469 172.433594 249.011719 204.195312 249.011719 C 238.695312 249.011719 261.878906 230.617188 261.878906 203.242188 C 261.878906 182.324219 245.984375 169.675781 219.539062 163.9375 L 200.667969 159.753906 C 181.992188 155.570312 174.78125 149.636719 174.78125 139.515625 C 174.78125 127.746094 186.433594 118.367188 203.59375 118.367188 C 219.351562 118.367188 231.042969 124.976562 235.140625 134.65625 C 235.824219 136.382812 236.296875 137.992188 236.613281 139.246094 C 236.996094 140.75 238.324219 141.816406 239.871094 141.816406 L 261.878906 141.816406 C 262.8125 141.816406 263.710938 141.421875 264.34375 140.734375 C 264.976562 140.042969 265.292969 139.121094 265.214844 138.1875 C 263.011719 111.898438 239.457031 94.917969 205.207031 94.917969 C 167.84375 94.917969 144.632812 112.886719 144.632812 141.816406 C 144.632812 163.222656 160.394531 175.902344 189.96875 182.324219 Z M 189.96875 182.324219 " fill-opacity="1" fill-rule="nonzero"/></g></svg>